<svg data-v-fde0c5aa="" xmlns="http://www.w3.org/2000/svg" viewBox="0 0 300 300" class="iconAbove"><!----><defs data-v-fde0c5aa=""><!----></defs><rect data-v-fde0c5aa="" fill="transparent" x="0" y="0" width="300px" height="300px" class="logo-background-square"></rect><defs data-v-fde0c5aa=""><!----></defs><g data-v-fde0c5aa="" id="428efdfc-b027-420d-bb5f-dbdf5010af62" fill="#000000" transform="matrix(3.1894012067395474,0,0,3.1894012067395474,17.990677254962335,170.48184404009737)"><path d="M4.23 7.90L4.23 7.90Q5.17 7.90 6.01 8.32L6.01 8.32L6.01 8.32Q6.85 8.75 7.42 9.53L7.42 9.53L6.33 10.88L6.33 10.88Q5.98 9.90 5.29 9.25L5.29 9.25L5.29 9.25Q4.59 8.61 3.64 8.61L3.64 8.61L3.64 8.61Q2.73 8.61 2.23 9.13L2.23 9.13L2.23 9.13Q1.72 9.65 1.72 10.46L1.72 10.46L1.72 10.46Q1.72 11.21 2.09 11.72L2.09 11.72L2.09 11.72Q2.45 12.22 2.97 12.53L2.97 12.53L2.97 12.53Q3.49 12.84 4.37 13.23L4.37 13.23L4.37 13.23Q5.21 13.61 5.69 13.89L5.69 13.89L5.69 13.89Q6.17 14.17 6.51 14.62L6.51 14.62L6.51 14.62Q6.85 15.06 6.85 15.72L6.85 15.72L6.85 15.72Q6.86 16.94 6.06 17.60L6.06 17.60L6.06 17.60Q5.26 18.26 3.99 18.26L3.99 18.26L3.99 18.26Q3.05 18.26 2.21 17.89L2.21 17.89L2.21 17.89Q1.36 17.51 0.85 16.76L0.85 16.76L1.95 15.54L1.95 15.54Q2.42 16.66 3.11 17.13L3.11 17.13L3.11 17.13Q3.79 17.60 4.44 17.60L4.44 17.60L4.44 17.60Q5.04 17.60 5.47 17.27L5.47 17.27L5.47 17.27Q5.89 16.94 5.89 16.41L5.89 16.41L5.89 16.41Q5.89 15.92 5.59 15.55L5.59 15.55L5.59 15.55Q5.29 15.18 4.84 14.92L4.84 14.92L4.84 14.92Q4.40 14.66 3.63 14.31L3.63 14.31L3.63 14.31Q2.65 13.86 2.06 13.50L2.06 13.50L2.06 13.50Q1.47 13.13 1.05 12.54L1.05 12.54L1.05 12.54Q0.63 11.94 0.63 11.09L0.63 11.09L0.63 11.09Q0.63 10.19 1.10 9.46L1.10 9.46L1.10 9.46Q1.57 8.72 2.39 8.31L2.39 8.31L2.39 8.31Q3.22 7.90 4.23 7.90L4.23 7.90ZM14.13 10.89L14.13 16.87L14.13 16.87Q14.13 17.08 14.23 17.21L14.23 17.21L14.23 17.21Q14.34 17.35 14.53 17.35L14.53 17.35L14.53 17.35Q14.83 17.35 15.25 16.80L15.25 16.80L15.46 17.01L15.46 17.01Q15.16 17.64 14.75 17.90L14.75 17.90L14.75 17.90Q14.34 18.16 14.34 18.16L14.34 18.16L14.34 18.16Q14.34 18.16 13.97 18.16L13.97 18.16L13.97 18.16Q13.52 18.16 13.29 17.91L13.29 17.91L13.29 17.91Q13.06 17.65 12.96 17.00L12.96 17.00L12.96 17.00Q12.87 16.35 12.87 15.06L12.87 15.06L12.87 15.06Q12.87 14.29 12.88 13.83L12.88 13.83L12.77 13.55L12.73 13.55L12.73 13.55Q12.36 15.27 11.71 16.77L11.71 16.77L11.71 16.77Q11.06 18.26 9.86 18.26L9.86 18.26L9.86 18.26Q9.41 18.26 9.21 18.03L9.21 18.03L9.21 18.03Q9.00 17.81 8.96 17.42L8.96 17.42L8.96 17.42Q8.92 17.04 8.92 16.24L8.92 16.24L8.92 12.29L8.92 12.29Q8.92 12.05 8.81 11.91L8.81 11.91L8.81 11.91Q8.71 11.77 8.53 11.77L8.53 11.77L8.53 11.77Q8.19 11.77 7.77 12.33L7.77 12.33L7.60 12.11L7.60 12.11Q7.83 11.58 8.17 11.32L8.17 11.32L8.17 11.32Q8.51 11.06 8.81 11.00L8.81 11.00L8.81 11.00Q9.11 10.93 9.11 10.98L9.11 10.98L9.11 10.98Q9.10 10.98 9.07 10.98L9.07 10.98L9.07 10.98Q9.04 10.99 8.99 10.99L8.99 10.99L8.99 10.99Q10.19 10.99 10.19 12.38L10.19 12.38L10.19 16.41L10.19 16.41Q10.19 16.72 10.26 16.85L10.26 16.85L10.26 16.85Q10.33 16.98 10.43 16.98L10.43 16.98L10.43 16.98Q11.03 16.98 11.55 15.81L11.55 15.81L11.55 15.81Q12.07 14.63 12.40 13.22L12.40 13.22L12.40 13.22Q12.73 11.80 12.73 11.52L12.73 11.52L14.13 10.89ZM18.20 5.15L18.20 16.91L18.20 16.91Q18.20 17.08 18.30 17.23L18.30 17.23L18.30 17.23Q18.40 17.39 18.63 17.39L18.63 17.39L18.63 17.39Q18.83 17.39 19.05 17.21L19.05 17.21L19.05 17.21Q19.26 17.04 19.38 16.84L19.38 16.84L19.61 17.05L19.61 17.05Q19.38 17.51 18.96 17.84L18.96 17.84L18.96 17.84Q18.54 18.16 18.12 18.16L18.12 18.16L18.12 18.16Q16.94 18.16 16.94 16.74L16.94 16.74L16.94 5.68L18.20 5.15ZM24.22 11.09L24.22 11.09Q24.91 11.09 25.52 11.38L25.52 11.38L25.52 11.38Q26.12 11.68 26.40 12.28L26.40 12.28L25.40 12.82L25.40 12.82Q25.17 12.50 24.78 12.24L24.78 12.24L24.78 12.24Q24.39 11.98 23.94 11.98L23.94 11.98L23.94 11.98Q23.23 11.98 22.69 12.36L22.69 12.36L22.69 12.36Q22.16 12.73 21.88 13.36L21.88 13.36L21.88 13.36Q21.60 13.99 21.60 14.76L21.60 14.76L21.60 14.76Q21.60 15.86 21.98 16.55L21.98 16.55L21.98 16.55Q22.36 17.25 23.17 17.25L23.17 17.25L23.17 17.25Q24.32 17.25 24.75 16.32L24.75 16.32L24.75 16.32Q25.19 15.40 25.19 14.31L25.19 14.31L25.19 13.68L26.42 13.16L26.42 16.84L26.42 16.84Q26.42 17.02 26.52 17.19L26.52 17.19L26.52 17.19Q26.61 17.36 26.81 17.36L26.81 17.36L26.81 17.36Q27.22 17.36 27.55 16.80L27.55 16.80L27.76 17.02L27.76 17.02Q27.59 17.50 27.17 17.83L27.17 17.83L27.17 17.83Q26.75 18.16 26.33 18.16L26.33 18.16L26.33 18.16Q25.73 18.16 25.45 17.71L25.45 17.71L25.45 17.71Q25.16 17.26 25.16 16.52L25.16 16.52L25.13 16.52L25.13 16.52Q24.78 17.26 24.19 17.76L24.19 17.76L24.19 17.76Q23.59 18.26 22.93 18.26L22.93 18.26L22.93 18.26Q21.74 18.26 21.13 17.44L21.13 17.44L21.13 17.44Q20.52 16.62 20.52 15.25L20.52 15.25L20.52 15.25Q20.52 14.15 21.01 13.20L21.01 13.20L21.01 13.20Q21.50 12.24 22.35 11.66L22.35 11.66L22.35 11.66Q23.20 11.09 24.22 11.09L24.22 11.09ZM38.04 7.74L38.19 7.90L38.19 7.90Q37.65 8.61 36.83 9.07L36.83 9.07L36.83 9.07Q36.02 9.52 35.15 9.52L35.15 9.52L35.15 9.52Q34.87 9.87 34.75 10.18L34.75 10.18L34.75 10.18Q34.62 10.49 34.62 10.91L34.62 10.91L34.62 15.47L34.62 15.47Q34.62 16.56 34.29 17.19L34.29 17.19L34.29 17.19Q33.95 17.81 33.21 18.38L33.21 18.38L32.91 18.10L32.91 18.10Q33.12 17.86 33.23 17.49L33.23 17.49L33.23 17.49Q33.33 17.11 33.33 16.73L33.33 16.73L33.33 11.72L33.33 11.72Q33.33 11.09 33.67 10.51L33.67 10.51L33.67 10.51Q34.01 9.94 34.52 9.52L34.52 9.52L32.59 9.51L32.59 9.51Q32.06 9.51 31.68 9.70L31.68 9.70L31.68 9.70Q31.30 9.88 30.94 10.29L30.94 10.29L30.67 10.08L30.67 10.08Q31.37 9.23 32.15 8.76L32.15 8.76L32.15 8.76Q32.93 8.30 33.74 8.30L33.74 8.30L34.90 8.30L34.90 8.30Q35.91 8.30 36.78 8.20L36.78 8.20L36.78 8.20Q37.65 8.09 38.04 7.74L38.04 7.74ZM40.26 10.96L40.52 11.26L40.52 11.26Q39.47 11.93 38.86 12.75L38.86 12.75L38.86 12.75Q38.26 13.58 38.26 14.70L38.26 14.70L38.26 14.70Q38.26 15.33 38.53 15.97L38.53 15.97L38.53 15.97Q38.79 16.60 39.33 17.02L39.33 17.02L39.33 17.02Q39.86 17.44 40.60 17.44L40.60 17.44L40.60 17.44Q41.20 17.44 41.67 17.16L41.67 17.16L41.67 17.16Q42.14 16.88 42.40 16.41L42.40 16.41L42.40 16.41Q42.66 15.93 42.66 15.36L42.66 15.36L42.66 15.36Q42.66 14.70 42.26 14.01L42.26 14.01L42.26 14.01Q41.86 13.33 41.22 12.85L41.22 12.85L41.22 12.85Q40.57 12.38 39.90 12.32L39.90 12.32L39.90 12.32Q40.18 12.04 40.57 11.73L40.57 11.73L40.57 11.73Q40.96 11.42 41.37 11.13L41.37 11.13L41.37 11.13Q42.34 11.45 42.90 12.36L42.90 12.36L42.90 12.36Q43.46 13.26 43.46 14.36L43.46 14.36L43.46 14.36Q43.46 15.34 43.06 16.25L43.06 16.25L43.06 16.25Q42.66 17.15 41.89 17.72L41.89 17.72L41.89 17.72Q41.12 18.28 40.07 18.28L40.07 18.28L40.07 18.28Q39.23 18.28 38.52 17.87L38.52 17.87L38.52 17.87Q37.81 17.46 37.41 16.74L37.41 16.74L37.41 16.74Q37.00 16.03 37.00 15.16L37.00 15.16L37.00 15.16Q37.00 13.64 37.91 12.52L37.91 12.52L37.91 12.52Q38.81 11.40 40.26 10.96L40.26 10.96ZM48.86 11.02L48.86 11.02Q49.60 11.02 50.23 11.45L50.23 11.45L50.23 11.45Q50.86 11.87 51.23 12.61L51.23 12.61L51.23 12.61Q51.59 13.34 51.59 14.21L51.59 14.21L51.59 14.21Q51.59 15.44 51.25 16.35L51.25 16.35L51.25 16.35Q50.90 17.25 50.26 17.74L50.26 17.74L50.26 17.74Q49.62 18.23 48.75 18.23L48.75 18.23L48.75 18.23Q48.54 18.23 48.34 18.17L48.34 18.17L48.34 18.17Q48.13 18.10 47.82 17.95L47.82 17.95L48.19 17.15L48.19 17.15Q48.54 17.37 49.20 17.37L49.20 17.37L49.20 17.37Q49.78 17.37 50.16 16.60L50.16 16.60L50.16 16.60Q50.53 15.82 50.53 14.60L50.53 14.60L50.53 14.60Q50.53 13.90 50.25 13.32L50.25 13.32L50.25 13.32Q49.97 12.74 49.48 12.41L49.48 12.41L49.48 12.41Q48.99 12.08 48.38 12.08L48.38 12.08L48.38 12.08Q47.66 12.08 47.26 12.87L47.26 12.87L47.26 12.87Q46.87 13.65 46.87 15.09L46.87 15.09L46.87 22.13L45.65 22.65L45.65 12.33L45.65 12.33Q45.65 12.08 45.54 11.93L45.54 11.93L45.54 11.93Q45.43 11.77 45.25 11.77L45.25 11.77L45.25 11.77Q45.11 11.77 44.94 11.91L44.94 11.91L44.94 11.91Q44.77 12.05 44.52 12.36L44.52 12.36L44.31 12.15L44.31 12.15Q44.48 11.68 44.90 11.35L44.90 11.35L44.90 11.35Q45.32 11.02 45.74 11.02L45.74 11.02L45.74 11.02Q46.37 11.02 46.65 11.39L46.65 11.39L46.65 11.39Q46.93 11.76 46.93 12.59L46.93 12.59L46.98 12.59L46.98 12.59Q47.31 11.89 47.82 11.45L47.82 11.45L47.82 11.45Q48.33 11.02 48.86 11.02L48.86 11.02ZM63.21 7.87L61.91 8.37L61.91 13.38L57.97 13.38L57.97 7.87L56.66 8.37L56.66 13.38L55.93 13.38L55.52 14.21L56.66 14.21L56.66 18.28L57.97 17.81L57.97 14.21L61.91 14.21L61.91 18.28L63.21 17.81L63.21 7.87ZM68.59 11.09L68.59 11.09Q69.27 11.09 69.88 11.38L69.88 11.38L69.88 11.38Q70.49 11.68 70.77 12.28L70.77 12.28L69.76 12.82L69.76 12.82Q69.54 12.50 69.15 12.24L69.15 12.24L69.15 12.24Q68.75 11.98 68.31 11.98L68.31 11.98L68.31 11.98Q67.59 11.98 67.06 12.36L67.06 12.36L67.06 12.36Q66.53 12.73 66.25 13.36L66.25 13.36L66.25 13.36Q65.97 13.99 65.97 14.76L65.97 14.76L65.97 14.76Q65.97 15.86 66.35 16.55L66.35 16.55L66.35 16.55Q66.72 17.25 67.54 17.25L67.54 17.25L67.54 17.25Q68.68 17.25 69.12 16.32L69.12 16.32L69.12 16.32Q69.55 15.40 69.55 14.31L69.55 14.31L69.55 13.68L70.78 13.16L70.78 16.84L70.78 16.84Q70.78 17.02 70.88 17.19L70.88 17.19L70.88 17.19Q70.98 17.36 71.18 17.36L71.18 17.36L71.18 17.36Q71.58 17.36 71.92 16.80L71.92 16.80L72.13 17.02L72.13 17.02Q71.96 17.50 71.54 17.83L71.54 17.83L71.54 17.83Q71.12 18.16 70.70 18.16L70.70 18.16L70.70 18.16Q70.10 18.16 69.81 17.71L69.81 17.71L69.81 17.71Q69.52 17.26 69.52 16.52L69.52 16.52L69.50 16.52L69.50 16.52Q69.15 17.26 68.55 17.76L68.55 17.76L68.55 17.76Q67.96 18.26 67.30 18.26L67.30 18.26L67.30 18.26Q66.11 18.26 65.50 17.44L65.50 17.44L65.50 17.44Q64.89 16.62 64.89 15.25L64.89 15.25L64.89 15.25Q64.89 14.15 65.38 13.20L65.38 13.20L65.38 13.20Q65.87 12.24 66.72 11.66L66.72 11.66L66.72 11.66Q67.56 11.09 68.59 11.09L68.59 11.09ZM74.82 6.41L74.34 9.67L73.88 9.84L73.30 6.93L74.82 6.41ZM74.80 11.14L74.80 16.91L74.80 16.91Q74.80 17.12 74.91 17.26L74.91 17.26L74.91 17.26Q75.01 17.39 75.21 17.39L75.21 17.39L75.21 17.39Q75.36 17.39 75.55 17.25L75.55 17.25L75.55 17.25Q75.74 17.11 75.94 16.84L75.94 16.84L76.16 17.05L76.16 17.05Q75.84 17.65 75.38 17.91L75.38 17.91L75.38 17.91Q74.93 18.16 74.55 18.16L74.55 18.16L74.55 18.16Q74.05 18.16 73.77 17.84L73.77 17.84L73.77 17.84Q73.50 17.51 73.50 16.74L73.50 16.74L73.50 11.65L74.80 11.14ZM80.26 12.80L80.26 12.80Q79.63 13.45 79.18 14.51L79.18 14.51L79.18 14.51Q78.72 15.57 78.72 16.44L78.72 16.44L78.72 16.44Q78.72 17.19 79.05 17.70L79.05 17.70L79.05 17.70Q79.38 18.21 80.11 18.21L80.11 18.21L80.11 18.21Q80.70 18.21 81.24 17.91L81.24 17.91L81.24 17.91Q81.77 17.60 82.15 17.11L82.15 17.11L82.00 16.90L82.00 16.90Q81.56 17.19 81.14 17.19L81.14 17.19L81.14 17.19Q80.49 17.19 80.15 16.73L80.15 16.73L80.15 16.73Q79.81 16.27 79.81 15.61L79.81 15.61L79.81 15.61Q79.81 14.55 80.36 13.59L80.36 13.59L80.36 13.59Q80.91 12.64 81.75 11.75L81.75 11.75L81.52 11.55L81.52 11.55Q80.54 12.17 79.73 12.17L79.73 12.17L79.73 12.17Q79.25 12.17 78.86 11.74L78.86 11.74L78.86 11.74Q78.47 11.31 78.26 10.79L78.26 10.79L77.13 12.07L77.13 12.07Q77.22 12.35 77.66 12.71L77.66 12.71L76.72 14.67L77.24 14.91L78.15 12.91L78.15 12.91Q78.39 13.01 78.54 13.03L78.54 13.03L78.54 13.03Q78.69 13.06 78.96 13.06L78.96 13.06L78.96 13.06Q79.65 13.06 80.22 12.75L80.22 12.75L80.26 12.80Z"></path></g><defs data-v-fde0c5aa=""><linearGradient data-v-fde0c5aa="" gradientTransform="rotate(25)" id="9e389391-7945-41fe-9319-450e4452831e" x1="0%" y1="0%" x2="100%" y2="0%"><stop data-v-fde0c5aa="" offset="0%" stop-color="#420F14" stop-opacity="1"></stop><stop data-v-fde0c5aa="" offset="100%" stop-color="#C5545E" stop-opacity="1"></stop></linearGradient></defs><g data-v-fde0c5aa="" id="ba66583a-c758-442a-9cee-732182fc1a90" stroke="none" fill="url(#9e389391-7945-41fe-9319-450e4452831e)" transform="matrix(1.2554013682905545,0,0,1.2554013682905545,87.22993637444844,50.32203888164722)"><path d="M62.521 51.762l.043.057-.043-.057c-.01-.016-.779-1.363-2.422-1.363a2.255 2.255 0 0 0-.001.001c1.643 0 2.414 1.347 2.423 1.362zM62.395 54.07zM59.67 59.303c.2.059.171-.347.285-.376l.12-.032-.263-.114c-.142-.03-.347.46-.142.522zM57.575 56.275c.313.371 1.6 1.576 4.788 1.576h.115c3.186 0 4.476-1.199 4.795-1.57.209-.243.267-.41.262-.453-.01-.014-.092-.077-.119-.1-.228.104-.494.104-.902.02-.277.143-.582.209-1.147.038-.4.262-1.566.267-1.581.267-.424 0-1.034-.115-1.182-.144-.158.03-.799.144-1.229.144-.014 0-1.171-.01-1.57-.267-.6.181-.886.1-1.156-.038-.448.076-.834.023-1.109-.102-.059-.023-.139-.028-.182-.062l.219-.275-.001-.001-.22.276c.043.034.123.039.182.062-.082.066-.21.168-.229.195.003.03.056.197.266.434zM60.654 58.865c-.118-.057-.489.523-.289.552.205.03.234-.085.352-.317.114-.235-.063-.235-.063-.235zM56.144 35.663l-.141.049c-.134.047-.286.1-.462.171-.861.343-1.784.505-2.903.505h.001c1.118 0 2.041-.162 2.904-.505.176-.071.328-.123.462-.171l.139-.049zM45.701 93.104c-.876-.086-1.776-.068-2.628-.205.852.137 1.752.119 2.628.205zM56.186 34.731c-.424-.781-.86-1.59-1.875-2.357-.924-.704-1.572-1.033-2.123-1.076h.001c.552.044 1.198.372 2.12 1.076 1.015.767 1.453 1.576 1.877 2.357zM46.453 33.25c-.114-.038-.171-.062-.209-.062.037 0 .094.024.209.062.184.067.494.181 1.127.348a19.3 19.3 0 0 0 3.908.4h.001c-1.3 0-2.723-.143-3.908-.4-.633-.167-.942-.281-1.128-.348zM56.484 35.469c.039-.1-.08-.338-.189-.533l-.109-.205.108.205c.108.195.227.433.19.533z"></path><path d="M58.639 55.395l.057-.01.053.023c.252.124.48.195 1.038.015l.233-.075v.172c.194.084.908.181 1.355.181s1.189-.14 1.195-.14l.033-.004.033.004c.008 0 .704.14 1.146.14.447 0 1.167-.097 1.361-.181v-.172l.232.075c.562.19.781.104 1.033-.015l.053-.023.057.01c.279.051.454.075.588.071-.723-.554-2.193-1.518-2.978-1.518-1.028 0-1.552.333-1.557.333l-.026.019-.248-.014c-.005-.005-.548-.338-1.581-.338-.747 0-2.111.881-2.87 1.446h.002c.194.044.442.063.791.001zM65.107 58.809a.61.61 0 0 0-.353.147c.233.144.638.552.608.752-.028.204.468-.147.324-.581-.145-.434-.35-.347-.579-.318z"></path><path d="M68.82 54.122c-.895-1.8-1.994-3.723-3.676-3.723a2.744 2.744 0 0 0 0 .001c1.681 0 2.781 1.923 3.676 3.722.742 1.478 1.671 1.93 2.084 2.06-.366.375-1.342 1.408-2.08 2.551l-.2.319c-.851 1.333-1.274 1.996-2.894 2.281 1.621-.285 2.044-.949 2.895-2.282l.201-.32c.738-1.143 1.714-2.176 2.081-2.551-.415-.129-1.343-.582-2.087-2.058z"></path><path d="M37.261 25.515c-.248 7.575-2.009 21.039 5.856 31.094 8.375 10.699 13.727 15.35 20.935 13.488 4.361-1.123 8.774-5.498 11.607-11.031h-.001c-3.324-2.2-5.928-7.371-8.646-13.36-3.01-6.614-7.232-11.494-13.293-15.35-4.175-2.656-11.379-4.323-16.459-4.842m22.685 19.938l.52-.076c.02.143.262 1.386 1.833 1.386 1.522 0 1.565-1.409 1.565-1.571h1.049c0 .905-.549 2.619-2.614 2.619-2.019 0-2.762-1.495-2.872-2.287l.519-.071zm-9.175-8.946c-2.274-.291-3.898-1.01-4.855-1.562-.462-.271-.638-.428-.671-.604-.024-.148.062-.272.171-.4.091-.1.172-.262.248-.419.129-.247.248-.486.424-.552.052-.015.1-.029.157-.029.086 0 .152.029.295.076.181.067.486.176 1.1.343 1.162.248 2.571.391 3.852.391.82 0 1.496-.057 1.81-.157l.058-.02c.396-.124.771-.238.814-.367.014-.057-.033-.138-.076-.2-.248-.333-1.795-1.347-2.371-1.709a.119.119 0 0 1-.053-.128.124.124 0 0 1 .102-.1c.699-.115 1.484.19 2.688 1.104 1.058.805 1.504 1.633 1.942 2.438l.109.205c.182.329.275.557.204.743-.075.191-.284.267-.633.386-.129.048-.28.1-.45.166-.895.357-1.847.524-2.998.524-.573 0-1.201-.043-1.867-.129zm20.445 19.699c-.014.008-1.291 1.252-2.189 2.65l-.205.319c-1.256 1.97-1.637 2.566-6.189 2.566h-.009c-4.562 0-4.942-.597-6.204-2.576l-.2-.31c-.896-1.399-2.166-2.643-2.181-2.651l-.171-.167.237-.033c.008-.005 1.209-.186 2.108-1.984.978-1.947 2.081-3.848 3.886-3.848 1.457 0 2.26.948 2.527 1.324.264-.381 1.062-1.324 2.52-1.324 1.814 0 2.957 1.986 3.885 3.848.906 1.799 2.111 1.979 2.119 1.985l.238.033-.172.168z"></path><path d="M61.879 58.957c-.205-.03-.581.346-.523.604.058.262.285-.229.496-.348.199-.113.027-.257.027-.256zM63.303 59.417c.119.349.176.467.176.467.201.028.287-.581.172-.671-.115-.086-.467-.143-.348.204zM67.673 56.123c.101-.182.119-.314.063-.405-.129-.203-1.456-1.227-2.589-1.726 1.132.499 2.458 1.521 2.587 1.725.057.092.039.222-.061.406-.405.727-1.957 1.955-5.194 1.955h-.115c-2.84 0-4.375-.943-4.983-1.667.607.725 2.143 1.668 4.985 1.668h.113c3.238 0 4.791-1.227 5.194-1.956zM62.631 61.514z"></path><path d="M24.328 15.035l-.002.001.002-.001c.2-.601.467-1.191.695-1.787-2.885 1.962-5.49 4.285-7.837 6.856.015.492.001 1.01.024 1.491h.002l-.002.002c.428 8.575 2.842 15.302 7.384 21.082-3.041-9.671-3.151-18.927-.266-27.644z"></path><path d="M30.077 22.419c1.695-5.97 4.628-10.77 7.361-13.988l-.003.001.001-.001a22.44 22.44 0 0 1 1.224-1.367 44.153 44.153 0 0 0-11.498 4.861c-.224.515-.401 1.038-.601 1.557h.002c-3.939 10.1-3.749 20.968.727 32.438.019.052-.014.1-.005.152a.733.733 0 0 1-.114.533c-.033.043-.023.1-.062.138-.043.039-.1.029-.143.058-.043.028-.062.085-.109.104a.817.817 0 0 1-.276.052.723.723 0 0 1-.485-.209c-.019-.014-.048-.005-.062-.023-6.17-6.38-9.484-13.736-10.26-23.382l-.004.005.002-.005c-.043-.514-.052-1.057-.081-1.59-1.171 1.424-2.223 2.942-3.213 4.504.052.571.052 1.204.119 1.761l.003-.002-.001.002c1.804 15.483 9.131 24.343 15.378 29.157 5.185 3.999 10.398 5.896 13.26 6.709-14.093-16.874-13.907-31.79-11.16-41.465z"></path><path d="M11.983 55.643C9.512 52.69 7.793 49.5 6.755 46.11c-.271-.891-.495-1.8-.667-2.724-.323 2.167-.547 4.362-.547 6.614 0 3.062.333 6.042.919 8.938.462.561.928 1.108 1.414 1.631 10.874 11.65 27.705 13.466 27.938 13.483a.76.76 0 0 1-.071 1.518c-.024 0-.048 0-.072-.004-.224-.021-15.688-1.657-26.914-11.941l.001.002-.001-.001c-.548-.505-1.062-1.071-1.585-1.614a43.697 43.697 0 0 0 2.676 7.194c.732.705 1.47 1.371 2.208 1.995l-.01-.021.01.02c8.651 7.321 17.602 9.551 24.586 9.846 10.351.425 19.178-3.138 22.458-5.069-9.307-.767-35.298-6.213-47.115-20.334z"></path><path d="M76.59 67.051c-2.086 4.027-8.256 13.889-20.605 18.674-8.97 3.476-19.253 3.479-30.675.094-.995-.295-2.009-.657-3.023-1.004 5.466 4.336 12.012 7.408 19.268 8.803a63.495 63.495 0 0 0 4.147-.514c-.876-.086-1.776-.067-2.628-.205.852.137 1.752.119 2.628.205 13.665-2.22 17.234-7.951 17.283-8.027a.758.758 0 0 1 1.037-.276.762.762 0 0 1 .281 1.033c-.166.29-2.828 4.675-12.218 7.44a50.014 50.014 0 0 1-4.642 1.086c.848.047 1.7.1 2.557.1 2.371 0 4.742-.189 7.051-.557 3.523-.562 6.871-1.559 10.041-2.866.477-.538.914-1.108 1.361-1.671h.001c2.471-3.118 4.456-6.527 5.813-9.693 2.104-4.914 2.928-9.532 2.323-12.622z"></path><path d="M80.411 49.387l-.001-.001c-.243-.729-.562-1.419-.844-2.124v.001c-.98-2.433-2.119-4.771-3.58-6.913-8.58-12.55-23.516-16.883-31.252-18.335l.002-.002c-2.971-.557-4.914-.705-4.98-.709-.138-.01-.238-.095-.347-.167h-.007c-.212-.146-.377-.351-.363-.625.224-4.223 2.88-8.237 7.28-11.012C48.39 8.19 50.69 7.291 53.1 6.719v-.002c1.215-.286 2.447-.5 3.709-.6-2.224-.343-4.491-.576-6.809-.576-2.828 0-5.589.295-8.27.8a14.89 14.89 0 0 0-1.605 1.395c-2.79 2.723-6.537 7.865-8.589 15.102-2.738 9.646-2.814 24.734 12.379 41.831.214.238.257.59.1.871a.753.753 0 0 1-.786.386c-.328-.053-8.141-1.371-16.125-7.504-6.232-4.783-13.459-13.454-15.711-28.237v-.001c-.091-.571-.214-1.09-.286-1.676-1.695 3.062-3.009 6.347-3.952 9.789-.005 1.205.043 2.391.2 3.547l.001-.002-.001.003c.624 4.656 2.557 8.946 5.794 12.822 13.34 15.938 44.05 19.888 47.949 19.888a.762.762 0 0 1 .739.946c-.376 1.505-7.789 5.347-16.944 6.646a47.086 47.086 0 0 1-6.556.473c-9.778 0-17.72-3.285-24.052-7.812l-.002-.003a48.468 48.468 0 0 1-2.395-1.824 44.12 44.12 0 0 0 7.279 9.119c.849.338 1.662.586 2.494.884l.003.003c12.736 4.58 24.082 5.08 33.771 1.318 14.808-5.736 20.521-19.443 20.578-19.582a.771.771 0 0 1 .676-.477.759.759 0 0 1 .709.424c1.666 3.352 1.02 9.184-1.732 15.602-1.053 2.452-2.489 5.05-4.202 7.562l-.004.003a44.403 44.403 0 0 1-1.242 1.768 44.042 44.042 0 0 0 9.441-6.438c.166-.608.365-1.235.518-1.834l.003-.003c3.111-12.355 3.192-23.045.231-31.943zM64.052 70.098c-7.208 1.861-12.56-2.789-20.935-13.488-7.865-10.055-6.104-23.52-5.856-31.094l-.001-.001c5.08.519 12.284 2.186 16.459 4.842 6.061 3.856 10.283 8.736 13.293 15.35 2.719 5.989 5.322 11.16 8.646 13.36h.001c-2.833 5.533-7.246 9.908-11.607 11.031z"></path><path d="M91.95 61.346c.071.967.081 2.01.128 3.004 1.523-4.514 2.381-9.33 2.381-14.35 0-10.865-3.928-20.82-10.427-28.552a34.378 34.378 0 0 0-3.942-2.704c-4.266-2.514-8.908-4.062-13.949-4.49-3.623-.31-6.914.005-9.521.485 4.385.262 10.402 1.462 16.281 5.333.467.31.929.667 1.391 1.004.438.324.881.619 1.314.972 2.16 1.766 4.056 3.895 5.804 6.223.305.404.637.775.932 1.204 5.37 7.794 8.597 18.439 9.608 31.871M69.029 54.02c-.928-1.861-2.07-3.848-3.885-3.848-1.457 0-2.256.943-2.52 1.324-.268-.376-1.07-1.324-2.527-1.324-1.805 0-2.908 1.9-3.886 3.848-.899 1.799-2.101 1.979-2.108 1.984l-.237.033.171.167c.015.009 1.285 1.252 2.181 2.651l.2.31c1.262 1.979 1.643 2.576 6.204 2.576h.009c4.553 0 4.934-.597 6.189-2.566l.205-.319c.898-1.398 2.176-2.643 2.189-2.65l.172-.167-.238-.033c-.007-.007-1.212-.188-2.119-1.986zM60.1 50.399c1.643 0 2.412 1.347 2.422 1.362l.043.058-.043-.057c-.01-.015-.78-1.362-2.424-1.362a2.26 2.26 0 0 0 .002-.001zm2.295 3.671zm-1.679-.122c1.033 0 1.576.333 1.581.338l.248.014.028-.019c.005 0 .528-.333 1.557-.333.784 0 2.255.964 2.978 1.518-.134.004-.309-.021-.588-.071l-.057-.01-.053.023c-.252.119-.471.205-1.033.015l-.232-.075v.172c-.195.084-.915.18-1.362.18-.442 0-1.139-.14-1.146-.14l-.033-.004-.033.004c-.006 0-.748.14-1.195.14s-1.161-.097-1.355-.181v-.172l-.233.075c-.558.181-.786.109-1.038-.015l-.053-.023-.057.01a1.964 1.964 0 0 1-.791 0h-.002c.757-.565 2.122-1.446 2.869-1.446zm-3.361 1.637l.22-.276.001.001-.219.275c.043.033.123.038.182.062.275.125.661.178 1.109.102.271.138.557.219 1.156.038.399.257 1.557.267 1.57.267.43 0 1.07-.113 1.229-.144.147.028.758.144 1.182.144.015 0 1.181-.005 1.581-.267.565.171.87.104 1.147-.038.408.085.675.085.902-.02.027.022.109.086.119.1.005.043-.053.21-.262.453-.319.371-1.609 1.57-4.795 1.57h-.115c-3.188 0-4.475-1.205-4.788-1.576-.21-.237-.263-.404-.267-.434.019-.027.146-.129.229-.195-.057-.023-.138-.028-.181-.062zm2.6 3.342c-.114.029-.085.435-.285.376-.205-.062 0-.552.143-.522l.263.114-.121.032zm.762.173c-.117.232-.146.348-.352.317-.2-.028.171-.608.289-.552 0 0 .177 0 .063.235zm1.135.113c-.211.119-.438.609-.496.348-.058-.258.318-.634.523-.604 0-.001.172.143-.027.256zm.627-1.134h-.113c-2.843 0-4.378-.943-4.985-1.668.608.724 2.144 1.667 4.983 1.667l.115.001c3.237-.001 4.789-1.229 5.193-1.957.102-.183.119-.313.062-.405-.129-.203-1.455-1.226-2.587-1.725 1.133.499 2.46 1.522 2.589 1.726.056.091.037.224-.063.405-.403.729-1.956 1.956-5.194 1.956zm1 1.805s-.057-.118-.176-.467c-.119-.347.233-.29.348-.204.115.09.029.699-.172.671zm-.848 1.63zm2.732-1.806c.029-.2-.375-.608-.608-.752 0 0 .114-.119.353-.147.229-.028.434-.115.58.318.143.434-.353.785-.325.581zm3.463-.978l-.201.32c-.851 1.333-1.273 1.997-2.895 2.282 1.619-.285 2.043-.948 2.894-2.281l.2-.319c.738-1.143 1.714-2.176 2.08-2.551-.413-.13-1.342-.582-2.084-2.059-.896-1.8-1.995-3.723-3.676-3.723a2.746 2.746 0 0 0 0-.001c1.682 0 2.781 1.923 3.676 3.723.744 1.476 1.672 1.929 2.087 2.058-.367.376-1.343 1.409-2.081 2.551zM56.085 35.945c.349-.119.558-.195.633-.386.071-.186-.022-.414-.204-.743l-.109-.205c-.438-.805-.885-1.633-1.942-2.438-1.204-.914-1.989-1.219-2.688-1.104a.124.124 0 0 0-.102.1c-.014.048.01.1.053.128.576.362 2.123 1.376 2.371 1.709.043.062.09.143.076.2-.043.129-.419.243-.814.367l-.058.02c-.313.1-.989.157-1.81.157-1.281 0-2.69-.143-3.852-.391a12.144 12.144 0 0 1-1.1-.343c-.143-.047-.209-.076-.295-.076-.057 0-.105.014-.157.029-.176.066-.295.305-.424.552-.076.157-.157.319-.248.419-.109.128-.195.252-.171.4.033.176.209.333.671.604.957.552 2.581 1.271 4.855 1.562a14.71 14.71 0 0 0 1.867.129c1.151 0 2.104-.167 2.998-.524.17-.066.321-.118.45-.166zm-4.597-1.947a19.3 19.3 0 0 1-3.908-.4c-.633-.167-.943-.281-1.128-.348-.114-.038-.171-.062-.208-.062.038 0 .095.024.209.062.186.067.495.181 1.128.348 1.186.257 2.608.4 3.907.4zm.7-2.7c.55.042 1.198.372 2.122 1.076 1.015.767 1.451 1.576 1.875 2.357l.109.205c.109.195.229.433.189.533.037-.1-.082-.338-.19-.533l-.108-.205c-.424-.781-.861-1.59-1.877-2.357-.921-.704-1.568-1.032-2.12-1.076zm.451 5.09c1.118 0 2.041-.162 2.902-.505.176-.071.328-.124.462-.171l.141-.049a6.879 6.879 0 0 1-.139.049c-.134.048-.286.1-.462.171-.863.343-1.786.505-2.904.505zM62.298 47.81c2.065 0 2.614-1.714 2.614-2.619h-1.049c0 .162-.043 1.571-1.565 1.571-1.571 0-1.813-1.243-1.833-1.386l-.52.076-.52.071c.111.792.854 2.287 2.873 2.287z"></path><path d="M59.242 7.575c-4.372-.077-8.575.98-12.108 3.208-3.718 2.347-6.056 5.623-6.503 9.074 1.114.114 3.356.41 6.247 1.043h-.001a65.3 65.3 0 0 1 3.693.929h.003c8.313 2.339 19.568 7.276 26.659 17.654a36.45 36.45 0 0 1 2.644 4.551h.001c.327.657.564 1.372.852 2.052 3.856 9.127 4.371 20.201 1.489 33.107l-.001.002c-.143.646-.246 1.274-.408 1.933a44.126 44.126 0 0 0 8.902-13.231c-.018-.809-.07-1.58-.104-2.371-.58-14.135-3.414-25.391-8.504-33.594-.299-.485-.595-.985-.908-1.447h-.002c-1.908-2.795-4.08-5.237-6.551-7.256-.957-.781-1.929-1.447-2.904-2.071h-.002a30.447 30.447 0 0 0-1.649-.994l.001-.001c-9.87-5.432-19.673-3.666-19.777-3.642a.762.762 0 0 1-.453-1.442c.286-.129 7.142-3.128 16.345-2.343 2.771.229 5.945.9 9.279 2.157h-.001a35.808 35.808 0 0 1 3.766 1.708 44.431 44.431 0 0 0-13.255-8.037 25.72 25.72 0 0 0-6.75-.989"></path></g><!----></svg>