<svg data-v-423bf9ae="" xmlns="http://www.w3.org/2000/svg" viewBox="0 0 279.49715750558033 60" class="font"><!----><!----><!----><g data-v-423bf9ae="" id="4526e09c-c802-4e14-98e6-31fa70f2eeca" fill="white" transform="matrix(3.4285714285714284,0,0,3.4285714285714284,-2.16000269140514,-17.657142707279746)"><path d="M4.23 7.90L4.23 7.90Q5.17 7.90 6.01 8.32L6.01 8.32L6.01 8.32Q6.85 8.75 7.42 9.53L7.42 9.53L6.33 10.88L6.33 10.88Q5.98 9.90 5.29 9.25L5.29 9.25L5.29 9.25Q4.59 8.61 3.64 8.61L3.64 8.61L3.64 8.61Q2.73 8.61 2.23 9.13L2.23 9.13L2.23 9.13Q1.72 9.65 1.72 10.46L1.72 10.46L1.72 10.46Q1.72 11.21 2.09 11.72L2.09 11.72L2.09 11.72Q2.45 12.22 2.97 12.53L2.97 12.53L2.97 12.53Q3.49 12.84 4.37 13.23L4.37 13.23L4.37 13.23Q5.21 13.61 5.69 13.89L5.69 13.89L5.69 13.89Q6.17 14.17 6.51 14.62L6.51 14.62L6.51 14.62Q6.85 15.06 6.85 15.72L6.85 15.72L6.85 15.72Q6.86 16.94 6.06 17.60L6.06 17.60L6.06 17.60Q5.26 18.26 3.99 18.26L3.99 18.26L3.99 18.26Q3.05 18.26 2.21 17.89L2.21 17.89L2.21 17.89Q1.36 17.51 0.85 16.76L0.85 16.76L1.95 15.54L1.95 15.54Q2.42 16.66 3.11 17.13L3.11 17.13L3.11 17.13Q3.79 17.60 4.44 17.60L4.44 17.60L4.44 17.60Q5.04 17.60 5.47 17.27L5.47 17.27L5.47 17.27Q5.89 16.94 5.89 16.41L5.89 16.41L5.89 16.41Q5.89 15.92 5.59 15.55L5.59 15.55L5.59 15.55Q5.29 15.18 4.84 14.92L4.84 14.92L4.84 14.92Q4.40 14.66 3.63 14.31L3.63 14.31L3.63 14.31Q2.65 13.86 2.06 13.50L2.06 13.50L2.06 13.50Q1.47 13.13 1.05 12.54L1.05 12.54L1.05 12.54Q0.63 11.94 0.63 11.09L0.63 11.09L0.63 11.09Q0.63 10.19 1.10 9.46L1.10 9.46L1.10 9.46Q1.57 8.72 2.39 8.31L2.39 8.31L2.39 8.31Q3.22 7.90 4.23 7.90L4.23 7.90ZM14.13 10.89L14.13 16.87L14.13 16.87Q14.13 17.08 14.23 17.21L14.23 17.21L14.23 17.21Q14.34 17.35 14.53 17.35L14.53 17.35L14.53 17.35Q14.83 17.35 15.25 16.80L15.25 16.80L15.46 17.01L15.46 17.01Q15.16 17.64 14.75 17.90L14.75 17.90L14.75 17.90Q14.34 18.16 14.34 18.16L14.34 18.16L14.34 18.16Q14.34 18.16 13.97 18.16L13.97 18.16L13.97 18.16Q13.52 18.16 13.29 17.91L13.29 17.91L13.29 17.91Q13.06 17.65 12.96 17.00L12.96 17.00L12.96 17.00Q12.87 16.35 12.87 15.06L12.87 15.06L12.87 15.06Q12.87 14.29 12.88 13.83L12.88 13.83L12.77 13.55L12.73 13.55L12.73 13.55Q12.36 15.27 11.71 16.77L11.71 16.77L11.71 16.77Q11.06 18.26 9.86 18.26L9.86 18.26L9.86 18.26Q9.41 18.26 9.21 18.03L9.21 18.03L9.21 18.03Q9.00 17.81 8.96 17.42L8.96 17.42L8.96 17.42Q8.92 17.04 8.92 16.24L8.92 16.24L8.92 12.29L8.92 12.29Q8.92 12.05 8.81 11.91L8.81 11.91L8.81 11.91Q8.71 11.77 8.53 11.77L8.53 11.77L8.53 11.77Q8.19 11.77 7.77 12.33L7.77 12.33L7.60 12.11L7.60 12.11Q7.83 11.58 8.17 11.32L8.17 11.32L8.17 11.32Q8.51 11.06 8.81 11.00L8.81 11.00L8.81 11.00Q9.11 10.93 9.11 10.98L9.11 10.98L9.11 10.98Q9.10 10.98 9.07 10.98L9.07 10.98L9.07 10.98Q9.04 10.99 8.99 10.99L8.99 10.99L8.99 10.99Q10.19 10.99 10.19 12.38L10.19 12.38L10.19 16.41L10.19 16.41Q10.19 16.72 10.26 16.85L10.26 16.85L10.26 16.85Q10.33 16.98 10.43 16.98L10.43 16.98L10.43 16.98Q11.03 16.98 11.55 15.81L11.55 15.81L11.55 15.81Q12.07 14.63 12.40 13.22L12.40 13.22L12.40 13.22Q12.73 11.80 12.73 11.52L12.73 11.52L14.13 10.89ZM18.20 5.15L18.20 16.91L18.20 16.91Q18.20 17.08 18.30 17.23L18.30 17.23L18.30 17.23Q18.40 17.39 18.63 17.39L18.63 17.39L18.63 17.39Q18.83 17.39 19.05 17.21L19.05 17.21L19.05 17.21Q19.26 17.04 19.38 16.84L19.38 16.84L19.61 17.05L19.61 17.05Q19.38 17.51 18.96 17.84L18.96 17.84L18.96 17.84Q18.54 18.16 18.12 18.16L18.12 18.16L18.12 18.16Q16.94 18.16 16.94 16.74L16.94 16.74L16.94 5.68L18.20 5.15ZM24.22 11.09L24.22 11.09Q24.91 11.09 25.52 11.38L25.52 11.38L25.52 11.38Q26.12 11.68 26.40 12.28L26.40 12.28L25.40 12.82L25.40 12.82Q25.17 12.50 24.78 12.24L24.78 12.24L24.78 12.24Q24.39 11.98 23.94 11.98L23.94 11.98L23.94 11.98Q23.23 11.98 22.69 12.36L22.69 12.36L22.69 12.36Q22.16 12.73 21.88 13.36L21.88 13.36L21.88 13.36Q21.60 13.99 21.60 14.76L21.60 14.76L21.60 14.76Q21.60 15.86 21.98 16.55L21.98 16.55L21.98 16.55Q22.36 17.25 23.17 17.25L23.17 17.25L23.17 17.25Q24.32 17.25 24.75 16.32L24.75 16.32L24.75 16.32Q25.19 15.40 25.19 14.31L25.19 14.31L25.19 13.68L26.42 13.16L26.42 16.84L26.42 16.84Q26.42 17.02 26.52 17.19L26.52 17.19L26.52 17.19Q26.61 17.36 26.81 17.36L26.81 17.36L26.81 17.36Q27.22 17.36 27.55 16.80L27.55 16.80L27.76 17.02L27.76 17.02Q27.59 17.50 27.17 17.83L27.17 17.83L27.17 17.83Q26.75 18.16 26.33 18.16L26.33 18.16L26.33 18.16Q25.73 18.16 25.45 17.71L25.45 17.71L25.45 17.71Q25.16 17.26 25.16 16.52L25.16 16.52L25.13 16.52L25.13 16.52Q24.78 17.26 24.19 17.76L24.19 17.76L24.19 17.76Q23.59 18.26 22.93 18.26L22.93 18.26L22.93 18.26Q21.74 18.26 21.13 17.44L21.13 17.44L21.13 17.44Q20.52 16.62 20.52 15.25L20.52 15.25L20.52 15.25Q20.52 14.15 21.01 13.20L21.01 13.20L21.01 13.20Q21.50 12.24 22.35 11.66L22.35 11.66L22.35 11.66Q23.20 11.09 24.22 11.09L24.22 11.09ZM38.04 7.74L38.19 7.90L38.19 7.90Q37.65 8.61 36.83 9.07L36.83 9.07L36.83 9.07Q36.02 9.52 35.15 9.52L35.15 9.52L35.15 9.52Q34.87 9.87 34.75 10.18L34.75 10.18L34.75 10.18Q34.62 10.49 34.62 10.91L34.62 10.91L34.62 15.47L34.62 15.47Q34.62 16.56 34.29 17.19L34.29 17.19L34.29 17.19Q33.95 17.81 33.21 18.38L33.21 18.38L32.91 18.10L32.91 18.10Q33.12 17.86 33.23 17.49L33.23 17.49L33.23 17.49Q33.33 17.11 33.33 16.73L33.33 16.73L33.33 11.72L33.33 11.72Q33.33 11.09 33.67 10.51L33.67 10.51L33.67 10.51Q34.01 9.94 34.52 9.52L34.52 9.52L32.59 9.51L32.59 9.51Q32.06 9.51 31.68 9.70L31.68 9.70L31.68 9.70Q31.30 9.88 30.94 10.29L30.94 10.29L30.67 10.08L30.67 10.08Q31.37 9.23 32.15 8.76L32.15 8.76L32.15 8.76Q32.93 8.30 33.74 8.30L33.74 8.30L34.90 8.30L34.90 8.30Q35.91 8.30 36.78 8.20L36.78 8.20L36.78 8.20Q37.65 8.09 38.04 7.74L38.04 7.74ZM40.26 10.96L40.52 11.26L40.52 11.26Q39.47 11.93 38.86 12.75L38.86 12.75L38.86 12.75Q38.26 13.58 38.26 14.70L38.26 14.70L38.26 14.70Q38.26 15.33 38.53 15.97L38.53 15.97L38.53 15.97Q38.79 16.60 39.33 17.02L39.33 17.02L39.33 17.02Q39.86 17.44 40.60 17.44L40.60 17.44L40.60 17.44Q41.20 17.44 41.67 17.16L41.67 17.16L41.67 17.16Q42.14 16.88 42.40 16.41L42.40 16.41L42.40 16.41Q42.66 15.93 42.66 15.36L42.66 15.36L42.66 15.36Q42.66 14.70 42.26 14.01L42.26 14.01L42.26 14.01Q41.86 13.33 41.22 12.85L41.22 12.85L41.22 12.85Q40.57 12.38 39.90 12.32L39.90 12.32L39.90 12.32Q40.18 12.04 40.57 11.73L40.57 11.73L40.57 11.73Q40.96 11.42 41.37 11.13L41.37 11.13L41.37 11.13Q42.34 11.45 42.90 12.36L42.90 12.36L42.90 12.36Q43.46 13.26 43.46 14.36L43.46 14.36L43.46 14.36Q43.46 15.34 43.06 16.25L43.06 16.25L43.06 16.25Q42.66 17.15 41.89 17.72L41.89 17.72L41.89 17.72Q41.12 18.28 40.07 18.28L40.07 18.28L40.07 18.28Q39.23 18.28 38.52 17.87L38.52 17.87L38.52 17.87Q37.81 17.46 37.41 16.74L37.41 16.74L37.41 16.74Q37.00 16.03 37.00 15.16L37.00 15.16L37.00 15.16Q37.00 13.64 37.91 12.52L37.91 12.52L37.91 12.52Q38.81 11.40 40.26 10.96L40.26 10.96ZM48.86 11.02L48.86 11.02Q49.60 11.02 50.23 11.45L50.23 11.45L50.23 11.45Q50.86 11.87 51.23 12.61L51.23 12.61L51.23 12.61Q51.59 13.34 51.59 14.21L51.59 14.21L51.59 14.21Q51.59 15.44 51.25 16.35L51.25 16.35L51.25 16.35Q50.90 17.25 50.26 17.74L50.26 17.74L50.26 17.74Q49.62 18.23 48.75 18.23L48.75 18.23L48.75 18.23Q48.54 18.23 48.34 18.17L48.34 18.17L48.34 18.17Q48.13 18.10 47.82 17.95L47.82 17.95L48.19 17.15L48.19 17.15Q48.54 17.37 49.20 17.37L49.20 17.37L49.20 17.37Q49.78 17.37 50.16 16.60L50.16 16.60L50.16 16.60Q50.53 15.82 50.53 14.60L50.53 14.60L50.53 14.60Q50.53 13.90 50.25 13.32L50.25 13.32L50.25 13.32Q49.97 12.74 49.48 12.41L49.48 12.41L49.48 12.41Q48.99 12.08 48.38 12.08L48.38 12.08L48.38 12.08Q47.66 12.08 47.26 12.87L47.26 12.87L47.26 12.87Q46.87 13.65 46.87 15.09L46.87 15.09L46.87 22.13L45.65 22.65L45.65 12.33L45.65 12.33Q45.65 12.08 45.54 11.93L45.54 11.93L45.54 11.93Q45.43 11.77 45.25 11.77L45.25 11.77L45.25 11.77Q45.11 11.77 44.94 11.91L44.94 11.91L44.94 11.91Q44.77 12.05 44.52 12.36L44.52 12.36L44.31 12.15L44.31 12.15Q44.48 11.68 44.90 11.35L44.90 11.35L44.90 11.35Q45.32 11.02 45.74 11.02L45.74 11.02L45.74 11.02Q46.37 11.02 46.65 11.39L46.65 11.39L46.65 11.39Q46.93 11.76 46.93 12.59L46.93 12.59L46.98 12.59L46.98 12.59Q47.31 11.89 47.82 11.45L47.82 11.45L47.82 11.45Q48.33 11.02 48.86 11.02L48.86 11.02ZM63.21 7.87L61.91 8.37L61.91 13.38L57.97 13.38L57.97 7.87L56.66 8.37L56.66 13.38L55.93 13.38L55.52 14.21L56.66 14.21L56.66 18.28L57.97 17.81L57.97 14.21L61.91 14.21L61.91 18.28L63.21 17.81L63.21 7.87ZM68.59 11.09L68.59 11.09Q69.27 11.09 69.88 11.38L69.88 11.38L69.88 11.38Q70.49 11.68 70.77 12.28L70.77 12.28L69.76 12.82L69.76 12.82Q69.54 12.50 69.15 12.24L69.15 12.24L69.15 12.24Q68.75 11.98 68.31 11.98L68.31 11.98L68.31 11.98Q67.59 11.98 67.06 12.36L67.06 12.36L67.06 12.36Q66.53 12.73 66.25 13.36L66.25 13.36L66.25 13.36Q65.97 13.99 65.97 14.76L65.97 14.76L65.97 14.76Q65.97 15.86 66.35 16.55L66.35 16.55L66.35 16.55Q66.72 17.25 67.54 17.25L67.54 17.25L67.54 17.25Q68.68 17.25 69.12 16.32L69.12 16.32L69.12 16.32Q69.55 15.40 69.55 14.31L69.55 14.31L69.55 13.68L70.78 13.16L70.78 16.84L70.78 16.84Q70.78 17.02 70.88 17.19L70.88 17.19L70.88 17.19Q70.98 17.36 71.18 17.36L71.18 17.36L71.18 17.36Q71.58 17.36 71.92 16.80L71.92 16.80L72.13 17.02L72.13 17.02Q71.96 17.50 71.54 17.83L71.54 17.83L71.54 17.83Q71.12 18.16 70.70 18.16L70.70 18.16L70.70 18.16Q70.10 18.16 69.81 17.71L69.81 17.71L69.81 17.71Q69.52 17.26 69.52 16.52L69.52 16.52L69.50 16.52L69.50 16.52Q69.15 17.26 68.55 17.76L68.55 17.76L68.55 17.76Q67.96 18.26 67.30 18.26L67.30 18.26L67.30 18.26Q66.11 18.26 65.50 17.44L65.50 17.44L65.50 17.44Q64.89 16.62 64.89 15.25L64.89 15.25L64.89 15.25Q64.89 14.15 65.38 13.20L65.38 13.20L65.38 13.20Q65.87 12.24 66.72 11.66L66.72 11.66L66.72 11.66Q67.56 11.09 68.59 11.09L68.59 11.09ZM74.82 6.41L74.34 9.67L73.88 9.84L73.30 6.93L74.82 6.41ZM74.80 11.14L74.80 16.91L74.80 16.91Q74.80 17.12 74.91 17.26L74.91 17.26L74.91 17.26Q75.01 17.39 75.21 17.39L75.21 17.39L75.21 17.39Q75.36 17.39 75.55 17.25L75.55 17.25L75.55 17.25Q75.74 17.11 75.94 16.84L75.94 16.84L76.16 17.05L76.16 17.05Q75.84 17.65 75.38 17.91L75.38 17.91L75.38 17.91Q74.93 18.16 74.55 18.16L74.55 18.16L74.55 18.16Q74.05 18.16 73.77 17.84L73.77 17.84L73.77 17.84Q73.50 17.51 73.50 16.74L73.50 16.74L73.50 11.65L74.80 11.14ZM80.26 12.80L80.26 12.80Q79.63 13.45 79.18 14.51L79.18 14.51L79.18 14.51Q78.72 15.57 78.72 16.44L78.72 16.44L78.72 16.44Q78.72 17.19 79.05 17.70L79.05 17.70L79.05 17.70Q79.38 18.21 80.11 18.21L80.11 18.21L80.11 18.21Q80.70 18.21 81.24 17.91L81.24 17.91L81.24 17.91Q81.77 17.60 82.15 17.11L82.15 17.11L82.00 16.90L82.00 16.90Q81.56 17.19 81.14 17.19L81.14 17.19L81.14 17.19Q80.49 17.19 80.15 16.73L80.15 16.73L80.15 16.73Q79.81 16.27 79.81 15.61L79.81 15.61L79.81 15.61Q79.81 14.55 80.36 13.59L80.36 13.59L80.36 13.59Q80.91 12.64 81.75 11.75L81.75 11.75L81.52 11.55L81.52 11.55Q80.54 12.17 79.73 12.17L79.73 12.17L79.73 12.17Q79.25 12.17 78.86 11.74L78.86 11.74L78.86 11.74Q78.47 11.31 78.26 10.79L78.26 10.79L77.13 12.07L77.13 12.07Q77.22 12.35 77.66 12.71L77.66 12.71L76.72 14.67L77.24 14.91L78.15 12.91L78.15 12.91Q78.39 13.01 78.54 13.03L78.54 13.03L78.54 13.03Q78.69 13.06 78.96 13.06L78.96 13.06L78.96 13.06Q79.65 13.06 80.22 12.75L80.22 12.75L80.26 12.80Z"></path></g><!----><!----></svg>